<?xml version="1.0" encoding="utf-8"?>
<!-- Generator: Adobe Illustrator 21.1.0, SVG Export Plug-In . SVG Version: 6.00 Build 0)  -->
<svg version="1.1" id="Layer_1" xmlns="http://www.w3.org/2000/svg" xmlns:xlink="http://www.w3.org/1999/xlink" x="0px" y="0px"
	 viewBox="0 0 415 335" style="enable-background:new 0 0 415 335;" xml:space="preserve">
<style type="text/css">
	.st0{fill:#FFFFFF;}
</style>
<g>
	<path d="M51.7,242L89.5,26c2.5-14,11.7-26,26-26H300c14.3,0,23,11,26,26l37.8,216H51.7z"/>
</g>
<g>
	<path d="M389.2,335h-363c-14.3,0-26-11.7-26-26V82c0-14.3,11.7-26,26-26h363c14.3,0,26,11.7,26,26v227
		C415.2,323.3,403.5,335,389.2,335z"/>
</g>
<g>
	<circle class="st0" cx="207.5" cy="189.5" r="103.5"/>
</g>
<g>
	<circle cx="207.5" cy="189.5" r="71.5"/>
</g>
<g>
	<circle class="st0" cx="238" cy="161" r="26"/>
</g>
</svg>
