<svg id="Layer_1" data-name="Layer 1" xmlns="http://www.w3.org/2000/svg" viewBox="0 0 500 500"><title>Artboard 1</title><path d="M250,115A135,135,0,1,0,385,250,135,135,0,0,0,250,115Zm0,197a62,62,0,1,1,62-62A62,62,0,0,1,250,312Z"/><path d="M250,74a176.52,176.52,0,0,1,40,4.57V8a8,8,0,0,0-8-8H218a8,8,0,0,0-8,8V78.57A176.52,176.52,0,0,1,250,74Z"/><path d="M74,250a176.52,176.52,0,0,1,4.57-40H8a8,8,0,0,0-8,8v64a8,8,0,0,0,8,8H78.57A176.52,176.52,0,0,1,74,250Z"/><path d="M250,426a176.52,176.52,0,0,1-40-4.57V492a8,8,0,0,0,8,8h64a8,8,0,0,0,8-8V421.43A176.52,176.52,0,0,1,250,426Z"/><path d="M492,210H421.43a177.4,177.4,0,0,1,0,80H492a8,8,0,0,0,8-8V218A8,8,0,0,0,492,210Z"/></svg>