<svg id="Layer_1" data-name="Layer 1" xmlns="http://www.w3.org/2000/svg" viewBox="0 0 400 342.22"><title>upload_icon</title><path d="M185.2,6.48l-80,95A7.58,7.58,0,0,0,111,114H271a7.58,7.58,0,0,0,5.8-12.47l-80-95A7.58,7.58,0,0,0,185.2,6.48Z" transform="translate(0 -3.78)"/><path d="M367.49,196H355.93c0,.6.07,1.2.07,1.8V279.2A24.88,24.88,0,0,1,331.2,304H68.8A24.88,24.88,0,0,1,44,279.2V197.8c0-.61,0-1.21.07-1.8H0V313.49A32.6,32.6,0,0,0,32.51,346h335A32.6,32.6,0,0,0,400,313.49V196Z" transform="translate(0 -3.78)"/><rect x="162" y="69.22" width="58" height="189" rx="25.08" ry="25.08"/></svg>